<svg width="340" height="95" viewBox="0 0 340 95" fill="none" xmlns="http://www.w3.org/2000/svg">
<rect width="340" height="95" fill="white"/>
<rect y="20" width="40" height="55" rx="20" fill="#FFE8AD"/>
<path d="M14.7411 41.12H19.4931V41.9H9.12509V41.12H13.8891V38.396H13.5291C12.8731 38.396 12.2971 38.264 11.8011 38C11.3051 37.736 10.9211 37.376 10.6491 36.92C10.3851 36.456 10.2531 35.94 10.2531 35.372C10.2531 34.804 10.3851 34.292 10.6491 33.836C10.9211 33.38 11.3051 33.02 11.8011 32.756C12.2971 32.492 12.8731 32.36 13.5291 32.36H15.1011C15.7571 32.36 16.3331 32.492 16.8291 32.756C17.3251 33.02 17.7051 33.38 17.9691 33.836C18.2411 34.292 18.3771 34.804 18.3771 35.372C18.3771 35.94 18.2411 36.456 17.9691 36.92C17.7051 37.376 17.3251 37.736 16.8291 38C16.3331 38.264 15.7571 38.396 15.1011 38.396H14.7411V41.12ZM11.1171 35.372C11.1171 35.796 11.2171 36.18 11.4171 36.524C11.6171 36.86 11.9091 37.128 12.2931 37.328C12.6771 37.52 13.1331 37.616 13.6611 37.616H14.9571C15.4851 37.616 15.9411 37.52 16.3251 37.328C16.7091 37.128 17.0011 36.86 17.2011 36.524C17.4091 36.18 17.5131 35.796 17.5131 35.372C17.5131 34.948 17.4091 34.568 17.2011 34.232C17.0011 33.896 16.7091 33.632 16.3251 33.44C15.9411 33.248 15.4851 33.152 14.9571 33.152H13.6611C13.1331 33.152 12.6771 33.248 12.2931 33.44C11.9091 33.632 11.6171 33.896 11.4171 34.232C11.2171 34.568 11.1171 34.948 11.1171 35.372ZM22.808 34.58H29.516V35.336H21.956V31.94H22.808V34.58ZM30.872 37.076H20.504V36.344H30.872V37.076ZM29.84 42.86H21.848V40.124H28.676V38.888H21.788V38.156H29.54V40.844H22.7V42.128H29.84V42.86Z" fill="#7A5900"/>
<path d="M16.7646 62.4H15.3646V52.908L12.7886 54.966L11.9906 53.916L15.5746 51.06H16.7646V62.4ZM23.3385 62.61C22.5638 62.61 21.8638 62.428 21.2385 62.064C20.6225 61.7 20.1325 61.1587 19.7685 60.44C19.4045 59.712 19.2225 58.8393 19.2225 57.822V55.624C19.2225 54.616 19.4045 53.7527 19.7685 53.034C20.1325 52.3153 20.6225 51.774 21.2385 51.41C21.8638 51.0367 22.5638 50.85 23.3385 50.85C24.1132 50.85 24.8132 51.0367 25.4385 51.41C26.0638 51.774 26.5585 52.3153 26.9225 53.034C27.2865 53.7527 27.4685 54.616 27.4685 55.624V57.822C27.4685 58.8393 27.2865 59.712 26.9225 60.44C26.5585 61.1587 26.0638 61.7 25.4385 62.064C24.8132 62.428 24.1132 62.61 23.3385 62.61ZM23.3385 61.35C24.1412 61.35 24.7945 61.0467 25.2985 60.44C25.8025 59.824 26.0545 58.928 26.0545 57.752V55.708C26.0545 54.532 25.8025 53.6407 25.2985 53.034C24.7945 52.418 24.1412 52.11 23.3385 52.11C22.5358 52.11 21.8825 52.418 21.3785 53.034C20.8745 53.6407 20.6225 54.532 20.6225 55.708V57.752C20.6225 58.928 20.8745 59.824 21.3785 60.44C21.8825 61.0467 22.5358 61.35 23.3385 61.35Z" fill="#7A5900"/>
<rect x="50.5" y="20.5" width="39" height="54" rx="19.5" stroke="#E6E6E6"/>
<path d="M73.6585 36.176H75.3865V36.956H73.6585V42.8H72.8065V31.724H73.6585V36.176ZM68.4625 33.14H71.2105V33.872H64.8385V33.14H67.5985V31.736H68.4625V33.14ZM68.5225 40.484C69.7465 40.412 70.8225 40.316 71.7505 40.196L71.8465 40.952C71.0225 41.064 70.1185 41.152 69.1345 41.216C68.1585 41.288 67.2825 41.324 66.5065 41.324H64.6825L64.6465 40.544H66.5545C66.7465 40.544 67.1145 40.536 67.6585 40.52V38.984C66.9785 38.92 66.4265 38.708 66.0025 38.348C65.5865 37.988 65.3785 37.516 65.3785 36.932V36.728C65.3785 36.08 65.6265 35.576 66.1225 35.216C66.6185 34.848 67.2585 34.664 68.0425 34.664C68.8105 34.664 69.4425 34.848 69.9385 35.216C70.4345 35.576 70.6825 36.08 70.6825 36.728V36.932C70.6825 37.5 70.4825 37.964 70.0825 38.324C69.6905 38.684 69.1705 38.9 68.5225 38.972V40.484ZM66.2185 36.92C66.2185 37.328 66.3905 37.656 66.7345 37.904C67.0785 38.152 67.5145 38.276 68.0425 38.276C68.5625 38.276 68.9905 38.152 69.3265 37.904C69.6705 37.656 69.8425 37.328 69.8425 36.92V36.752C69.8425 36.336 69.6705 36.004 69.3265 35.756C68.9905 35.508 68.5625 35.384 68.0425 35.384C67.5145 35.384 67.0785 35.508 66.7345 35.756C66.3905 36.004 66.2185 36.336 66.2185 36.752V36.92Z" fill="#666666"/>
<path d="M68.4941 62.4H67.0941V52.908L64.5181 54.966L63.7201 53.916L67.3041 51.06H68.4941V62.4ZM75.166 62.4H73.766V52.908L71.19 54.966L70.392 53.916L73.976 51.06H75.166V62.4Z" fill="#666666"/>
<rect x="100.5" y="20.5" width="39" height="54" rx="19.5" stroke="#E6E6E6"/>
<path d="M119.735 34.796C119.031 35.708 117.755 36.536 115.907 37.28L115.559 36.524C118.271 35.452 119.627 34.176 119.627 32.696V31.964H120.479V32.696C120.479 33.192 120.379 33.656 120.179 34.088L124.427 36.548L124.019 37.28L119.735 34.796ZM114.815 38.648H125.183V39.44H120.431V42.92H119.579V39.44H114.815V38.648Z" fill="#666666"/>
<path d="M117.059 62.4H115.659V52.908L113.083 54.966L112.285 53.916L115.869 51.06H117.059V62.4ZM119.488 62.4V61.308L123.646 57.178C124.309 56.5247 124.785 55.96 125.074 55.484C125.364 54.9987 125.508 54.4993 125.508 53.986C125.508 53.4073 125.308 52.95 124.906 52.614C124.514 52.278 123.964 52.11 123.254 52.11C122.05 52.11 121.22 52.866 120.762 54.378L119.432 54.056C119.684 53.1413 120.132 52.3807 120.776 51.774C121.43 51.158 122.256 50.85 123.254 50.85C123.982 50.85 124.617 50.976 125.158 51.228C125.709 51.4707 126.134 51.8253 126.432 52.292C126.74 52.7587 126.894 53.3047 126.894 53.93C126.894 54.6487 126.717 55.3113 126.362 55.918C126.008 56.5247 125.457 57.1967 124.71 57.934L121.504 61.112H127.16V62.4H119.488Z" fill="#666666"/>
<rect x="150.5" y="20.5" width="39" height="54" rx="19.5" stroke="#E6E6E6"/>
<path d="M170.431 35.876V37.22H175.183V37.988H164.815V37.22H169.579V35.876H166.267V32H173.743V35.876H170.431ZM172.879 32.744H167.119V35.132H172.879V32.744ZM172.987 40.1H166.159V39.32H173.851V42.92H172.987V40.1Z" fill="#666666"/>
<path d="M166.929 62.4H165.529V52.908L162.953 54.966L162.155 53.916L165.739 51.06H166.929V62.4ZM170.423 59.334C170.936 60.678 171.893 61.35 173.293 61.35C174.095 61.35 174.73 61.1633 175.197 60.79C175.673 60.4073 175.911 59.9127 175.911 59.306C175.911 58.6807 175.663 58.1673 175.169 57.766C174.683 57.3647 173.988 57.164 173.083 57.164H171.655V55.946H173.083C173.904 55.946 174.534 55.764 174.973 55.4C175.421 55.036 175.645 54.56 175.645 53.972C175.645 53.3933 175.43 52.9407 175.001 52.614C174.571 52.278 173.993 52.11 173.265 52.11C172.089 52.11 171.253 52.7213 170.759 53.944L169.499 53.468C169.788 52.7027 170.245 52.0773 170.871 51.592C171.496 51.0973 172.294 50.85 173.265 50.85C173.993 50.85 174.637 50.976 175.197 51.228C175.766 51.4707 176.209 51.8207 176.527 52.278C176.853 52.7353 177.017 53.2767 177.017 53.902C177.017 54.5647 176.844 55.12 176.499 55.568C176.163 56.016 175.719 56.3427 175.169 56.548C175.803 56.744 176.317 57.0893 176.709 57.584C177.101 58.0787 177.297 58.6713 177.297 59.362C177.297 60.006 177.129 60.5707 176.793 61.056C176.457 61.5507 175.985 61.9333 175.379 62.204C174.772 62.4747 174.077 62.61 173.293 62.61C172.21 62.61 171.323 62.3487 170.633 61.826C169.942 61.3033 169.457 60.622 169.177 59.782L170.423 59.334Z" fill="#666666"/>
<rect x="200.5" y="20.5" width="39" height="54" rx="19.5" stroke="#E6E6E6"/>
<path d="M225.183 36.26V37.04H214.815V36.26H222.363C222.475 35.652 222.563 35.044 222.627 34.436C222.699 33.82 222.735 33.328 222.735 32.96V32.9H216.123V32.12H223.587V32.78C223.587 33.788 223.467 34.948 223.227 36.26H225.183ZM223.851 42.8H216.159V38.564H223.851V42.8ZM222.987 39.332H217.011V42.032H222.987V39.332Z" fill="#666666"/>
<path d="M216.819 62.4H215.419V52.908L212.843 54.966L212.045 53.916L215.629 51.06H216.819V62.4ZM226.081 58.872H227.831V60.16H226.081V62.61H224.695V60.16H218.997V59.012L224.205 51.06H226.081V58.872ZM224.695 52.656L220.677 58.872H224.695V52.656Z" fill="#666666"/>
<rect x="250.5" y="20.5" width="39" height="54" rx="19.5" stroke="#E6E6E6"/>
<path d="M270.431 38.744V41.12H275.183V41.912H264.815V41.12H269.579V38.744H266.159V32.54H273.851V33.32H267.011V35.24H273.851V36.008H267.011V37.976H274.091V38.744H270.431Z" fill="#666666"/>
<path d="M267.059 62.4H265.659V52.908L263.083 54.966L262.285 53.916L265.869 51.06H267.059V62.4ZM273.506 55.148C274.216 55.148 274.846 55.3067 275.396 55.624C275.956 55.9413 276.39 56.3847 276.698 56.954C277.016 57.514 277.174 58.158 277.174 58.886C277.174 59.614 277.011 60.2627 276.684 60.832C276.358 61.392 275.896 61.826 275.298 62.134C274.71 62.4513 274.029 62.61 273.254 62.61C272.405 62.61 271.621 62.4233 270.902 62.05C270.193 61.6767 269.684 61.14 269.376 60.44L270.566 59.768C270.79 60.2813 271.136 60.6687 271.602 60.93C272.069 61.1913 272.596 61.322 273.184 61.322C273.978 61.322 274.608 61.1027 275.074 60.664C275.55 60.216 275.788 59.6233 275.788 58.886C275.788 58.1487 275.555 57.556 275.088 57.108C274.622 56.66 274.01 56.436 273.254 56.436C272.713 56.436 272.251 56.5713 271.868 56.842C271.495 57.1033 271.206 57.4813 271 57.976H269.712L270.426 51.06H276.768V52.348H271.63L271.196 56.156C271.476 55.8293 271.817 55.582 272.218 55.414C272.62 55.2367 273.049 55.148 273.506 55.148Z" fill="#666666"/>
<rect x="300.5" y="20.5" width="39" height="54" rx="19.5" stroke="#E6E6E6"/>
<path d="M324.175 37.148H323.323V31.724H324.175V37.148ZM318.187 36.824C317.347 36.824 316.655 36.624 316.111 36.224C315.567 35.816 315.295 35.24 315.295 34.496V34.304C315.295 33.552 315.563 32.976 316.099 32.576C316.643 32.176 317.339 31.976 318.187 31.976C319.019 31.976 319.703 32.176 320.239 32.576C320.783 32.976 321.055 33.552 321.055 34.304V34.496C321.055 35.24 320.783 35.816 320.239 36.224C319.703 36.624 319.019 36.824 318.187 36.824ZM318.187 36.044C318.787 36.044 319.271 35.908 319.639 35.636C320.015 35.364 320.203 34.976 320.203 34.472V34.316C320.203 33.82 320.015 33.436 319.639 33.164C319.271 32.884 318.787 32.744 318.187 32.744C317.579 32.744 317.087 32.884 316.711 33.164C316.343 33.436 316.159 33.82 316.159 34.316V34.472C316.159 34.976 316.343 35.364 316.711 35.636C317.087 35.908 317.579 36.044 318.187 36.044ZM324.643 42.86H317.059V39.992H323.323V38.672H317.011V37.94H324.175V40.736H317.923V42.104H324.643V42.86Z" fill="#666666"/>
<path d="M316.922 62.4H315.522V52.908L312.946 54.966L312.148 53.916L315.732 51.06H316.922V62.4ZM323.636 54.952C324.317 54.952 324.947 55.1107 325.526 55.428C326.104 55.7453 326.566 56.1933 326.912 56.772C327.266 57.3507 327.444 58.0227 327.444 58.788C327.444 59.5533 327.266 60.2253 326.912 60.804C326.557 61.3827 326.072 61.826 325.456 62.134C324.84 62.4513 324.154 62.61 323.398 62.61C322.623 62.61 321.932 62.456 321.326 62.148C320.719 61.84 320.243 61.3873 319.898 60.79C319.552 60.1927 319.38 59.4833 319.38 58.662V55.834C319.38 54.714 319.557 53.7807 319.912 53.034C320.276 52.2873 320.752 51.7367 321.34 51.382C321.937 51.0273 322.581 50.85 323.272 50.85C325.12 50.85 326.436 51.6667 327.22 53.3L326.058 53.916C325.74 53.3 325.372 52.8427 324.952 52.544C324.532 52.2453 323.99 52.096 323.328 52.096C322.534 52.096 321.89 52.4133 321.396 53.048C320.91 53.6827 320.672 54.63 320.682 55.89V56.436C320.98 55.96 321.391 55.596 321.914 55.344C322.446 55.0827 323.02 54.952 323.636 54.952ZM323.398 61.364C323.892 61.364 324.34 61.2567 324.742 61.042C325.152 60.8367 325.474 60.538 325.708 60.146C325.941 59.754 326.058 59.292 326.058 58.76C326.058 58.2373 325.941 57.78 325.708 57.388C325.474 56.996 325.152 56.6973 324.742 56.492C324.34 56.2867 323.892 56.184 323.398 56.184C322.912 56.184 322.469 56.2867 322.068 56.492C321.666 56.6973 321.349 56.996 321.116 57.388C320.882 57.78 320.766 58.2373 320.766 58.76C320.766 59.292 320.882 59.754 321.116 60.146C321.349 60.538 321.666 60.8367 322.068 61.042C322.469 61.2567 322.912 61.364 323.398 61.364Z" fill="#666666"/>
</svg>
