<svg width="22" height="22" viewBox="0 0 22 22" fill="none" xmlns="http://www.w3.org/2000/svg">
<g clip-path="url(#clip0_7536_43755)">
<path d="M9.13848 2.46368C9.61225 0.512107 12.3877 0.512108 12.8615 2.46368C13.1676 3.72437 14.6119 4.32264 15.7198 3.64761C17.4348 2.60266 19.3973 4.56523 18.3524 6.28021C17.6774 7.38806 18.2756 8.83242 19.5363 9.13847C21.4879 9.61225 21.4879 12.3877 19.5363 12.8615C18.2756 13.1676 17.6774 14.6119 18.3524 15.7198C19.3973 17.4348 17.4348 19.3973 15.7198 18.3524C14.6119 17.6774 13.1676 18.2756 12.8615 19.5363C12.3877 21.4879 9.61225 21.4879 9.13848 19.5363C8.83242 18.2756 7.38806 17.6774 6.28021 18.3524C4.56523 19.3973 2.60266 17.4348 3.64761 15.7198C4.32264 14.6119 3.72437 13.1676 2.46368 12.8615C0.512108 12.3877 0.512107 9.61225 2.46368 9.13847C3.72437 8.83242 4.32264 7.38806 3.64761 6.28021C2.60266 4.56523 4.56523 2.60265 6.28021 3.64761C7.38806 4.32264 8.83242 3.72437 9.13848 2.46368Z" stroke="#1A1A1A" stroke-width="1.5" stroke-linecap="round" stroke-linejoin="round"/>
<path d="M14.3333 11C14.3333 12.8409 12.8409 14.3333 11 14.3333C9.15905 14.3333 7.66667 12.8409 7.66667 11C7.66667 9.15905 9.15905 7.66667 11 7.66667C12.8409 7.66667 14.3333 9.15905 14.3333 11Z" stroke="#1A1A1A" stroke-width="1.5" stroke-linecap="round" stroke-linejoin="round"/>
</g>
<defs>
<clipPath id="clip0_7536_43755">
<rect width="22" height="22" fill="white"/>
</clipPath>
</defs>
</svg>
