<svg width="22" height="22" viewBox="0 0 22 22" fill="none" xmlns="http://www.w3.org/2000/svg">
<path d="M11.0003 4.58329L11.0003 4.59246M11.0003 11L11.0003 11.0091M11.0003 17.4166L11.0003 17.4258M11.0003 5.49996C10.4941 5.49996 10.0837 5.08955 10.0837 4.58329C10.0837 4.07703 10.4941 3.66663 11.0003 3.66663C11.5066 3.66663 11.917 4.07703 11.917 4.58329C11.917 5.08955 11.5066 5.49996 11.0003 5.49996ZM11.0003 11.9166C10.4941 11.9166 10.0837 11.5062 10.0837 11C10.0837 10.4937 10.4941 10.0833 11.0003 10.0833C11.5066 10.0833 11.917 10.4937 11.917 11C11.917 11.5062 11.5066 11.9166 11.0003 11.9166ZM11.0003 18.3333C10.4941 18.3333 10.0837 17.9229 10.0837 17.4166C10.0837 16.9104 10.4941 16.5 11.0003 16.5C11.5066 16.5 11.917 16.9104 11.917 17.4166C11.917 17.9229 11.5066 18.3333 11.0003 18.3333Z" stroke="#1A1A1A" stroke-width="1.5" stroke-linecap="round" stroke-linejoin="round"/>
</svg>
