<svg width="22" height="22" viewBox="0 0 22 22" fill="none" xmlns="http://www.w3.org/2000/svg">
<path d="M15.5834 20.1667C14.8195 20.1667 14.1702 19.8993 13.6355 19.3646C13.1007 18.8299 12.8334 18.1806 12.8334 17.4167C12.8334 17.325 12.8563 17.1112 12.9021 16.775L6.46254 13.0167C6.2181 13.2459 5.93546 13.4254 5.61462 13.5552C5.29379 13.6851 4.95004 13.75 4.58337 13.75C3.81949 13.75 3.17018 13.4827 2.63546 12.948C2.10074 12.4132 1.83337 11.7639 1.83337 11C1.83337 10.2362 2.10074 9.58685 2.63546 9.05212C3.17018 8.5174 3.81949 8.25004 4.58337 8.25004C4.95004 8.25004 5.29379 8.31497 5.61462 8.44483C5.93546 8.57469 6.2181 8.75421 6.46254 8.98337L12.9021 5.22504C12.8716 5.1181 12.8525 5.01497 12.8448 4.91567C12.8372 4.81636 12.8334 4.7056 12.8334 4.58337C12.8334 3.81949 13.1007 3.17018 13.6355 2.63546C14.1702 2.10074 14.8195 1.83337 15.5834 1.83337C16.3473 1.83337 16.9966 2.10074 17.5313 2.63546C18.066 3.17018 18.3334 3.81949 18.3334 4.58337C18.3334 5.34726 18.066 5.99657 17.5313 6.53129C16.9966 7.06601 16.3473 7.33337 15.5834 7.33337C15.2167 7.33337 14.873 7.26844 14.5521 7.13858C14.2313 7.00872 13.9487 6.82921 13.7042 6.60004L7.26462 10.3584C7.29518 10.4653 7.31428 10.5684 7.32192 10.6677C7.32955 10.7671 7.33337 10.8778 7.33337 11C7.33337 11.1223 7.32955 11.233 7.32192 11.3323C7.31428 11.4316 7.29518 11.5348 7.26462 11.6417L13.7042 15.4C13.9487 15.1709 14.2313 14.9914 14.5521 14.8615C14.873 14.7316 15.2167 14.6667 15.5834 14.6667C16.3473 14.6667 16.9966 14.9341 17.5313 15.4688C18.066 16.0035 18.3334 16.6528 18.3334 17.4167C18.3334 18.1806 18.066 18.8299 17.5313 19.3646C16.9966 19.8993 16.3473 20.1667 15.5834 20.1667ZM15.5834 18.3334C15.8431 18.3334 16.0608 18.2455 16.2365 18.0698C16.4122 17.8941 16.5 17.6764 16.5 17.4167C16.5 17.157 16.4122 16.9393 16.2365 16.7636C16.0608 16.5879 15.8431 16.5 15.5834 16.5C15.3237 16.5 15.1059 16.5879 14.9302 16.7636C14.7546 16.9393 14.6667 17.157 14.6667 17.4167C14.6667 17.6764 14.7546 17.8941 14.9302 18.0698C15.1059 18.2455 15.3237 18.3334 15.5834 18.3334ZM4.58337 11.9167C4.8431 11.9167 5.0608 11.8289 5.2365 11.6532C5.41219 11.4775 5.50004 11.2598 5.50004 11C5.50004 10.7403 5.41219 10.5226 5.2365 10.3469C5.0608 10.1712 4.8431 10.0834 4.58337 10.0834C4.32365 10.0834 4.10594 10.1712 3.93025 10.3469C3.75455 10.5226 3.66671 10.7403 3.66671 11C3.66671 11.2598 3.75455 11.4775 3.93025 11.6532C4.10594 11.8289 4.32365 11.9167 4.58337 11.9167ZM15.5834 5.50004C15.8431 5.50004 16.0608 5.41219 16.2365 5.2365C16.4122 5.0608 16.5 4.8431 16.5 4.58337C16.5 4.32365 16.4122 4.10594 16.2365 3.93025C16.0608 3.75455 15.8431 3.66671 15.5834 3.66671C15.3237 3.66671 15.1059 3.75455 14.9302 3.93025C14.7546 4.10594 14.6667 4.32365 14.6667 4.58337C14.6667 4.8431 14.7546 5.0608 14.9302 5.2365C15.1059 5.41219 15.3237 5.50004 15.5834 5.50004Z" fill="#1C1B1F"/>
</svg>
